<mxfile host="app.diagrams.net" modified="2024-06-20T03:08:32.900Z" agent="Mozilla/5.0 (Windows NT 10.0; Win64; x64) AppleWebKit/537.36 (KHTML, like Gecko) Chrome/126.0.0.0 Safari/537.36" etag="aQK-yF8tQzK44hdR8cdV" version="24.5.5" type="device">
  <diagram name="Page-1" id="74e2e168-ea6b-b213-b513-2b3c1d86103e">
    <mxGraphModel dx="1674" dy="746" grid="1" gridSize="10" guides="1" tooltips="1" connect="1" arrows="1" fold="1" page="1" pageScale="1" pageWidth="1100" pageHeight="850" background="none" math="0" shadow="0">
      <root>
        <mxCell id="0" />
        <mxCell id="1" parent="0" />
        <mxCell id="tGC_jH2PQ1GB1UBxkvFk-8" style="edgeStyle=none;rounded=0;orthogonalLoop=1;jettySize=auto;html=1;exitX=0.5;exitY=1;exitDx=0;exitDy=0;exitPerimeter=0;entryX=0.5;entryY=0;entryDx=0;entryDy=0;" parent="1" source="tGC_jH2PQ1GB1UBxkvFk-1" target="tGC_jH2PQ1GB1UBxkvFk-2" edge="1">
          <mxGeometry relative="1" as="geometry" />
        </mxCell>
        <mxCell id="tGC_jH2PQ1GB1UBxkvFk-1" value="Inicio" style="strokeWidth=2;html=1;shape=mxgraph.flowchart.start_1;whiteSpace=wrap;" parent="1" vertex="1">
          <mxGeometry x="370" y="20" width="80" height="30" as="geometry" />
        </mxCell>
        <mxCell id="tGC_jH2PQ1GB1UBxkvFk-9" style="edgeStyle=none;rounded=0;orthogonalLoop=1;jettySize=auto;html=1;exitX=0.5;exitY=1;exitDx=0;exitDy=0;entryX=0.5;entryY=0;entryDx=0;entryDy=0;" parent="1" source="tGC_jH2PQ1GB1UBxkvFk-2" target="tGC_jH2PQ1GB1UBxkvFk-3" edge="1">
          <mxGeometry relative="1" as="geometry" />
        </mxCell>
        <mxCell id="tGC_jH2PQ1GB1UBxkvFk-2" value="&#39;Cantidad_de_personas&#39; = 6" style="rounded=1;whiteSpace=wrap;html=1;" parent="1" vertex="1">
          <mxGeometry x="330" y="70" width="160" height="20" as="geometry" />
        </mxCell>
        <mxCell id="tGC_jH2PQ1GB1UBxkvFk-10" style="edgeStyle=none;rounded=0;orthogonalLoop=1;jettySize=auto;html=1;exitX=0.5;exitY=1;exitDx=0;exitDy=0;entryX=0.5;entryY=0;entryDx=0;entryDy=0;" parent="1" source="tGC_jH2PQ1GB1UBxkvFk-3" target="tGC_jH2PQ1GB1UBxkvFk-4" edge="1">
          <mxGeometry relative="1" as="geometry" />
        </mxCell>
        <mxCell id="tGC_jH2PQ1GB1UBxkvFk-3" value="&#39;porcentaje_sexo_masculino&#39; = 0" style="rounded=1;whiteSpace=wrap;html=1;" parent="1" vertex="1">
          <mxGeometry x="320" y="100" width="180" height="20" as="geometry" />
        </mxCell>
        <mxCell id="tGC_jH2PQ1GB1UBxkvFk-11" style="edgeStyle=none;rounded=0;orthogonalLoop=1;jettySize=auto;html=1;exitX=0.5;exitY=1;exitDx=0;exitDy=0;entryX=0.5;entryY=0;entryDx=0;entryDy=0;" parent="1" source="tGC_jH2PQ1GB1UBxkvFk-4" target="tGC_jH2PQ1GB1UBxkvFk-5" edge="1">
          <mxGeometry relative="1" as="geometry" />
        </mxCell>
        <mxCell id="tGC_jH2PQ1GB1UBxkvFk-4" value="&#39;porcentaje_sexo_femenino&#39; = 0" style="rounded=1;whiteSpace=wrap;html=1;" parent="1" vertex="1">
          <mxGeometry x="320" y="130" width="180" height="20" as="geometry" />
        </mxCell>
        <mxCell id="tGC_jH2PQ1GB1UBxkvFk-12" style="edgeStyle=none;rounded=0;orthogonalLoop=1;jettySize=auto;html=1;exitX=0.5;exitY=1;exitDx=0;exitDy=0;entryX=0.5;entryY=0;entryDx=0;entryDy=0;" parent="1" source="tGC_jH2PQ1GB1UBxkvFk-5" target="tGC_jH2PQ1GB1UBxkvFk-6" edge="1">
          <mxGeometry relative="1" as="geometry" />
        </mxCell>
        <mxCell id="tGC_jH2PQ1GB1UBxkvFk-5" value="&#39;Cantidad_de_hombres&#39; = 0&amp;nbsp;" style="rounded=1;whiteSpace=wrap;html=1;" parent="1" vertex="1">
          <mxGeometry x="330" y="160" width="160" height="20" as="geometry" />
        </mxCell>
        <mxCell id="tGC_jH2PQ1GB1UBxkvFk-13" style="edgeStyle=none;rounded=0;orthogonalLoop=1;jettySize=auto;html=1;exitX=0.5;exitY=1;exitDx=0;exitDy=0;entryX=0.5;entryY=0;entryDx=0;entryDy=0;" parent="1" source="tGC_jH2PQ1GB1UBxkvFk-6" target="tGC_jH2PQ1GB1UBxkvFk-7" edge="1">
          <mxGeometry relative="1" as="geometry" />
        </mxCell>
        <mxCell id="tGC_jH2PQ1GB1UBxkvFk-6" value="&#39;Cantidad_de_mujeres&#39; = 0" style="rounded=1;whiteSpace=wrap;html=1;" parent="1" vertex="1">
          <mxGeometry x="330" y="190" width="160" height="20" as="geometry" />
        </mxCell>
        <mxCell id="tGC_jH2PQ1GB1UBxkvFk-15" style="edgeStyle=none;rounded=0;orthogonalLoop=1;jettySize=auto;html=1;exitX=0.5;exitY=1;exitDx=0;exitDy=0;entryX=0.5;entryY=0;entryDx=0;entryDy=0;" parent="1" source="tGC_jH2PQ1GB1UBxkvFk-7" target="tGC_jH2PQ1GB1UBxkvFk-14" edge="1">
          <mxGeometry relative="1" as="geometry">
            <mxPoint x="410" y="260" as="targetPoint" />
          </mxGeometry>
        </mxCell>
        <mxCell id="tGC_jH2PQ1GB1UBxkvFk-7" value="&#39;contador = 1&#39;" style="rounded=1;whiteSpace=wrap;html=1;" parent="1" vertex="1">
          <mxGeometry x="330" y="220" width="160" height="20" as="geometry" />
        </mxCell>
        <mxCell id="tGC_jH2PQ1GB1UBxkvFk-33" style="edgeStyle=none;rounded=0;orthogonalLoop=1;jettySize=auto;html=1;exitX=0;exitY=0.5;exitDx=0;exitDy=0;entryX=1;entryY=0.5;entryDx=0;entryDy=0;" parent="1" source="tGC_jH2PQ1GB1UBxkvFk-14" target="tGC_jH2PQ1GB1UBxkvFk-27" edge="1">
          <mxGeometry relative="1" as="geometry" />
        </mxCell>
        <mxCell id="tGC_jH2PQ1GB1UBxkvFk-49" value="Falso" style="edgeLabel;html=1;align=center;verticalAlign=middle;resizable=0;points=[];" parent="tGC_jH2PQ1GB1UBxkvFk-33" vertex="1" connectable="0">
          <mxGeometry x="-0.1692" y="2" relative="1" as="geometry">
            <mxPoint as="offset" />
          </mxGeometry>
        </mxCell>
        <mxCell id="tGC_jH2PQ1GB1UBxkvFk-14" value="(&#39;contador&#39; â‰¤ &#39;Cantidad_de_personas&#39;)" style="rhombus;whiteSpace=wrap;html=1;" parent="1" vertex="1">
          <mxGeometry x="295" y="260" width="230" height="100" as="geometry" />
        </mxCell>
        <mxCell id="tGC_jH2PQ1GB1UBxkvFk-17" value="&quot;Ingrese un sexo, 1 para Mujer y 2 para Hombre. Favor ingrese el sexo numero: &quot;" style="strokeWidth=2;html=1;shape=mxgraph.flowchart.display;whiteSpace=wrap;" parent="1" vertex="1">
          <mxGeometry x="610" y="275" width="190" height="75" as="geometry" />
        </mxCell>
        <mxCell id="tGC_jH2PQ1GB1UBxkvFk-18" style="edgeStyle=none;rounded=0;orthogonalLoop=1;jettySize=auto;html=1;exitX=1;exitY=0.5;exitDx=0;exitDy=0;entryX=0;entryY=0.5;entryDx=0;entryDy=0;entryPerimeter=0;" parent="1" target="tGC_jH2PQ1GB1UBxkvFk-17" edge="1">
          <mxGeometry relative="1" as="geometry">
            <mxPoint x="525" y="310" as="sourcePoint" />
          </mxGeometry>
        </mxCell>
        <mxCell id="tGC_jH2PQ1GB1UBxkvFk-19" value="Verdadero" style="edgeLabel;html=1;align=center;verticalAlign=middle;resizable=0;points=[];" parent="tGC_jH2PQ1GB1UBxkvFk-18" vertex="1" connectable="0">
          <mxGeometry x="-0.2" y="-3" relative="1" as="geometry">
            <mxPoint as="offset" />
          </mxGeometry>
        </mxCell>
        <mxCell id="CgCkv1KeSA5zmWkf6XAD-5" style="edgeStyle=orthogonalEdgeStyle;rounded=0;orthogonalLoop=1;jettySize=auto;html=1;exitX=0.5;exitY=1;exitDx=0;exitDy=0;exitPerimeter=0;entryX=0.5;entryY=0;entryDx=0;entryDy=0;" edge="1" parent="1" source="tGC_jH2PQ1GB1UBxkvFk-22" target="CgCkv1KeSA5zmWkf6XAD-1">
          <mxGeometry relative="1" as="geometry" />
        </mxCell>
        <mxCell id="tGC_jH2PQ1GB1UBxkvFk-22" value="&#39;Contador&#39;" style="strokeWidth=2;html=1;shape=mxgraph.flowchart.display;whiteSpace=wrap;" parent="1" vertex="1">
          <mxGeometry x="670" y="370" width="70" height="25" as="geometry" />
        </mxCell>
        <mxCell id="tGC_jH2PQ1GB1UBxkvFk-23" style="edgeStyle=none;rounded=0;orthogonalLoop=1;jettySize=auto;html=1;exitX=0.5;exitY=1;exitDx=0;exitDy=0;exitPerimeter=0;entryX=0.5;entryY=0;entryDx=0;entryDy=0;entryPerimeter=0;" parent="1" source="tGC_jH2PQ1GB1UBxkvFk-17" target="tGC_jH2PQ1GB1UBxkvFk-22" edge="1">
          <mxGeometry relative="1" as="geometry" />
        </mxCell>
        <mxCell id="tGC_jH2PQ1GB1UBxkvFk-42" style="edgeStyle=none;rounded=0;orthogonalLoop=1;jettySize=auto;html=1;exitX=1;exitY=0.5;exitDx=0;exitDy=0;entryX=0.59;entryY=0.033;entryDx=0;entryDy=0;entryPerimeter=0;" parent="1" source="tGC_jH2PQ1GB1UBxkvFk-25" edge="1">
          <mxGeometry relative="1" as="geometry">
            <mxPoint x="904.0500000000002" y="550.99" as="targetPoint" />
            <Array as="points">
              <mxPoint x="904" y="500" />
            </Array>
          </mxGeometry>
        </mxCell>
        <mxCell id="tGC_jH2PQ1GB1UBxkvFk-53" value="Verdadero" style="edgeLabel;html=1;align=center;verticalAlign=middle;resizable=0;points=[];" parent="tGC_jH2PQ1GB1UBxkvFk-42" vertex="1" connectable="0">
          <mxGeometry x="-0.2476" relative="1" as="geometry">
            <mxPoint as="offset" />
          </mxGeometry>
        </mxCell>
        <mxCell id="tGC_jH2PQ1GB1UBxkvFk-43" style="edgeStyle=none;rounded=0;orthogonalLoop=1;jettySize=auto;html=1;exitX=0;exitY=0.5;exitDx=0;exitDy=0;entryX=0.5;entryY=0;entryDx=0;entryDy=0;" parent="1" source="tGC_jH2PQ1GB1UBxkvFk-25" edge="1">
          <mxGeometry relative="1" as="geometry">
            <Array as="points">
              <mxPoint x="570" y="500" />
            </Array>
            <mxPoint x="570" y="550" as="targetPoint" />
          </mxGeometry>
        </mxCell>
        <mxCell id="tGC_jH2PQ1GB1UBxkvFk-54" value="Falso" style="edgeLabel;html=1;align=center;verticalAlign=middle;resizable=0;points=[];" parent="tGC_jH2PQ1GB1UBxkvFk-43" vertex="1" connectable="0">
          <mxGeometry x="-0.2828" y="2" relative="1" as="geometry">
            <mxPoint as="offset" />
          </mxGeometry>
        </mxCell>
        <mxCell id="tGC_jH2PQ1GB1UBxkvFk-25" value="&#39;sexo&#39;= 1" style="rhombus;whiteSpace=wrap;html=1;" parent="1" vertex="1">
          <mxGeometry x="665" y="470" width="75" height="60" as="geometry" />
        </mxCell>
        <mxCell id="tGC_jH2PQ1GB1UBxkvFk-35" style="edgeStyle=none;rounded=0;orthogonalLoop=1;jettySize=auto;html=1;exitX=0.5;exitY=1;exitDx=0;exitDy=0;entryX=0.5;entryY=0;entryDx=0;entryDy=0;" parent="1" source="tGC_jH2PQ1GB1UBxkvFk-27" target="tGC_jH2PQ1GB1UBxkvFk-28" edge="1">
          <mxGeometry relative="1" as="geometry">
            <mxPoint x="160" y="350" as="targetPoint" />
          </mxGeometry>
        </mxCell>
        <mxCell id="tGC_jH2PQ1GB1UBxkvFk-27" value="&#39;porcentaje_sexo_femenino&#39; = (Cantidad_de_mujeres / Cantidad_de_personas) * 100" style="rounded=1;whiteSpace=wrap;html=1;" parent="1" vertex="1">
          <mxGeometry x="20" y="290" width="185" height="45" as="geometry" />
        </mxCell>
        <mxCell id="tGC_jH2PQ1GB1UBxkvFk-28" value="&#39;porcentaje_sexo_masculino&#39;&amp;nbsp; = (Cantidad_de_hombres / Cantidad_de_personas) * 100" style="rounded=1;whiteSpace=wrap;html=1;" parent="1" vertex="1">
          <mxGeometry x="12.5" y="360" width="200" height="50" as="geometry" />
        </mxCell>
        <mxCell id="tGC_jH2PQ1GB1UBxkvFk-29" value="&quot;El porcentaje de mujeres es de: porcentaje_sexo_femenino&quot;" style="strokeWidth=2;html=1;shape=mxgraph.flowchart.display;whiteSpace=wrap;" parent="1" vertex="1">
          <mxGeometry x="6.5600000000000005" y="438" width="211.87" height="72" as="geometry" />
        </mxCell>
        <mxCell id="tGC_jH2PQ1GB1UBxkvFk-50" style="edgeStyle=none;rounded=0;orthogonalLoop=1;jettySize=auto;html=1;exitX=0.5;exitY=1;exitDx=0;exitDy=0;exitPerimeter=0;entryX=0.5;entryY=0;entryDx=0;entryDy=0;entryPerimeter=0;" parent="1" source="tGC_jH2PQ1GB1UBxkvFk-30" target="tGC_jH2PQ1GB1UBxkvFk-51" edge="1">
          <mxGeometry relative="1" as="geometry">
            <mxPoint x="113" y="660" as="targetPoint" />
          </mxGeometry>
        </mxCell>
        <mxCell id="tGC_jH2PQ1GB1UBxkvFk-30" value="&quot;El porcentaje de hombres de: porcentaje_sexo_masculino&quot;" style="strokeWidth=2;html=1;shape=mxgraph.flowchart.display;whiteSpace=wrap;" parent="1" vertex="1">
          <mxGeometry x="17.5" y="540" width="190" height="70" as="geometry" />
        </mxCell>
        <mxCell id="tGC_jH2PQ1GB1UBxkvFk-34" style="edgeStyle=none;rounded=0;orthogonalLoop=1;jettySize=auto;html=1;entryX=0.5;entryY=0;entryDx=0;entryDy=0;" parent="1" source="tGC_jH2PQ1GB1UBxkvFk-28" target="tGC_jH2PQ1GB1UBxkvFk-28" edge="1">
          <mxGeometry relative="1" as="geometry" />
        </mxCell>
        <mxCell id="tGC_jH2PQ1GB1UBxkvFk-36" style="edgeStyle=none;rounded=0;orthogonalLoop=1;jettySize=auto;html=1;exitX=0.5;exitY=1;exitDx=0;exitDy=0;entryX=0.5;entryY=0;entryDx=0;entryDy=0;entryPerimeter=0;" parent="1" source="tGC_jH2PQ1GB1UBxkvFk-28" target="tGC_jH2PQ1GB1UBxkvFk-29" edge="1">
          <mxGeometry relative="1" as="geometry" />
        </mxCell>
        <mxCell id="tGC_jH2PQ1GB1UBxkvFk-37" style="edgeStyle=none;rounded=0;orthogonalLoop=1;jettySize=auto;html=1;exitX=0.5;exitY=1;exitDx=0;exitDy=0;exitPerimeter=0;entryX=0.5;entryY=0;entryDx=0;entryDy=0;entryPerimeter=0;" parent="1" source="tGC_jH2PQ1GB1UBxkvFk-29" target="tGC_jH2PQ1GB1UBxkvFk-30" edge="1">
          <mxGeometry relative="1" as="geometry">
            <mxPoint x="160" y="530" as="sourcePoint" />
          </mxGeometry>
        </mxCell>
        <mxCell id="tGC_jH2PQ1GB1UBxkvFk-45" style="edgeStyle=none;rounded=0;orthogonalLoop=1;jettySize=auto;html=1;exitX=0.5;exitY=1;exitDx=0;exitDy=0;entryX=1;entryY=0.5;entryDx=0;entryDy=0;" parent="1" target="tGC_jH2PQ1GB1UBxkvFk-44" edge="1">
          <mxGeometry relative="1" as="geometry">
            <mxPoint x="907.5" y="560" as="sourcePoint" />
            <Array as="points">
              <mxPoint x="908" y="615" />
            </Array>
          </mxGeometry>
        </mxCell>
        <mxCell id="tGC_jH2PQ1GB1UBxkvFk-40" value="&#39;Cantidad_de_mujeres&#39; = &#39;Cantidad_de_mujeres&#39; + 1" style="rounded=1;whiteSpace=wrap;html=1;" parent="1" vertex="1">
          <mxGeometry x="730" y="540" width="295" height="30" as="geometry" />
        </mxCell>
        <mxCell id="tGC_jH2PQ1GB1UBxkvFk-46" style="edgeStyle=none;rounded=0;orthogonalLoop=1;jettySize=auto;html=1;exitX=0.5;exitY=1;exitDx=0;exitDy=0;entryX=0;entryY=0.5;entryDx=0;entryDy=0;" parent="1" source="tGC_jH2PQ1GB1UBxkvFk-41" target="tGC_jH2PQ1GB1UBxkvFk-44" edge="1">
          <mxGeometry relative="1" as="geometry">
            <Array as="points">
              <mxPoint x="570" y="615" />
            </Array>
            <mxPoint x="570" y="580" as="sourcePoint" />
          </mxGeometry>
        </mxCell>
        <mxCell id="tGC_jH2PQ1GB1UBxkvFk-41" value="&#39;Cantidad_de_hombres&#39; = &#39;Cantidad_de_hombres&#39; + 1" style="rounded=1;whiteSpace=wrap;html=1;" parent="1" vertex="1">
          <mxGeometry x="420" y="540" width="300" height="30" as="geometry" />
        </mxCell>
        <mxCell id="tGC_jH2PQ1GB1UBxkvFk-44" value="&#39;contador&#39; = &#39;contador&#39; + 1" style="rounded=1;whiteSpace=wrap;html=1;" parent="1" vertex="1">
          <mxGeometry x="635" y="600" width="140" height="30" as="geometry" />
        </mxCell>
        <mxCell id="tGC_jH2PQ1GB1UBxkvFk-47" style="edgeStyle=none;rounded=0;orthogonalLoop=1;jettySize=auto;html=1;exitX=0.5;exitY=1;exitDx=0;exitDy=0;entryX=0.5;entryY=1;entryDx=0;entryDy=0;" parent="1" source="tGC_jH2PQ1GB1UBxkvFk-44" target="tGC_jH2PQ1GB1UBxkvFk-14" edge="1">
          <mxGeometry relative="1" as="geometry">
            <mxPoint x="403.0999999999999" y="356" as="targetPoint" />
            <Array as="points">
              <mxPoint x="705" y="640" />
              <mxPoint x="410" y="640" />
            </Array>
          </mxGeometry>
        </mxCell>
        <mxCell id="tGC_jH2PQ1GB1UBxkvFk-51" value="Fin" style="strokeWidth=2;html=1;shape=mxgraph.flowchart.terminator;whiteSpace=wrap;" parent="1" vertex="1">
          <mxGeometry x="62.5" y="640" width="100" height="60" as="geometry" />
        </mxCell>
        <mxCell id="CgCkv1KeSA5zmWkf6XAD-4" style="edgeStyle=orthogonalEdgeStyle;rounded=0;orthogonalLoop=1;jettySize=auto;html=1;exitX=0.5;exitY=1;exitDx=0;exitDy=0;entryX=0.5;entryY=0;entryDx=0;entryDy=0;" edge="1" parent="1" source="CgCkv1KeSA5zmWkf6XAD-1" target="tGC_jH2PQ1GB1UBxkvFk-25">
          <mxGeometry relative="1" as="geometry" />
        </mxCell>
        <mxCell id="CgCkv1KeSA5zmWkf6XAD-1" value="&#39;sexo&#39;" style="shape=parallelogram;html=1;strokeWidth=2;perimeter=parallelogramPerimeter;whiteSpace=wrap;rounded=1;arcSize=12;size=0.23;" vertex="1" parent="1">
          <mxGeometry x="657.5" y="410" width="95" height="33" as="geometry" />
        </mxCell>
      </root>
    </mxGraphModel>
  </diagram>
</mxfile>
